<svg width="100" height="112" viewBox="0 0 100 112" fill="none" xmlns="http://www.w3.org/2000/svg">
<path d="M0.819702 0.819672H99.1804V90.9836C99.1804 90.9836 98.7978 94.0984 96.4481 96.4481C94.0984 98.7978 90.9836 99.1803 90.9836 99.1803H58.1968C58.1968 99.1803 54.3716 103.169 53.2787 104.645C52.3334 105.924 50 110.109 50 110.109C50 110.109 47.6667 105.924 46.7213 104.645C45.6284 103.169 41.8033 99.1803 41.8033 99.1803H9.01642C9.01642 99.1803 5.74866 98.6448 3.55194 96.4481C1.35522 94.2514 0.819702 90.9836 0.819702 90.9836V0.819672Z" stroke="black" stroke-width="1.63934" stroke-miterlimit="10"/>
<path d="M6.28418 21.5847V86.612H47.2678L50 88.7978L52.7323 86.612H93.7159V21.5847C93.7159 21.5847 85.4918 21.9781 82.7869 21.5847C78.9181 21.0164 71.3989 18.1803 67.4864 18.306C62.9454 18.4481 50 23.224 50 23.224C50 23.224 37.0547 18.3716 32.5137 18.306C28.6011 18.2513 21.1039 21.1748 17.2131 21.5847C14.4973 21.8743 6.28418 21.5847 6.28418 21.5847Z" stroke="black" stroke-width="0.546448" stroke-miterlimit="10"/>
<path d="M8.46997 21.5847V85.5191H47.2678L50 82.7869L52.7323 85.5191H91.5301V21.5847" stroke="black" stroke-width="0.546448" stroke-miterlimit="10"/>
<path d="M10.1093 21.5847V82.2404L12.2951 82.7869C12.2951 82.7869 14.7487 83.4481 15.5738 83.3333C19.0219 82.847 24.7104 77.9235 28.1421 77.3224C33.6284 76.3606 50 81.694 50 81.694C50 81.694 66.3279 76.6339 71.8579 77.3224C75.3115 77.7541 81.0055 82.6667 84.4262 83.3333C85.2405 83.4918 87.7049 82.7869 87.7049 82.7869L89.8907 82.2404V21.5847" stroke="black" stroke-width="0.546448" stroke-miterlimit="10"/>
<path d="M37.6313 5.70211L39.8969 4.5968H40.1234V12.4576C40.1234 12.9793 40.144 13.3043 40.1852 13.4324C40.231 13.5606 40.3225 13.659 40.4598 13.7276C40.5971 13.7963 40.8763 13.8352 41.2974 13.8443V14.0984H37.7961V13.8443C38.2355 13.8352 38.5192 13.7986 38.6474 13.7345C38.7755 13.6658 38.8648 13.5766 38.9151 13.4668C38.9655 13.3523 38.9906 13.0159 38.9906 12.4576V7.43216C38.9906 6.75479 38.9678 6.31999 38.922 6.12776C38.8899 5.9813 38.8304 5.87374 38.7435 5.80509C38.6611 5.73644 38.5604 5.70211 38.4414 5.70211C38.2721 5.70211 38.0364 5.77305 37.7343 5.91494L37.6313 5.70211ZM43.7551 14.2906V14.0366C44.3501 14.0274 44.9039 13.8901 45.4165 13.6247C45.9292 13.3546 46.4235 12.8855 46.8994 12.2173C47.38 11.549 47.7141 10.8145 47.9018 10.0135C47.1832 10.4758 46.5333 10.7069 45.952 10.7069C45.2975 10.7069 44.7369 10.4552 44.27 9.95172C43.8032 9.44369 43.5698 8.7709 43.5698 7.93333C43.5698 7.11865 43.8032 6.39322 44.27 5.75703C44.833 4.98355 45.5676 4.5968 46.4738 4.5968C47.2381 4.5968 47.8926 4.9126 48.4373 5.54421C49.1055 6.32685 49.4396 7.29257 49.4396 8.44136C49.4396 9.47573 49.1856 10.4414 48.6776 11.3385C48.1695 12.231 47.4624 12.9725 46.5562 13.5629C45.8193 14.048 45.0161 14.2906 44.1465 14.2906H43.7551ZM48.0116 9.50548C48.094 8.91049 48.1352 8.4345 48.1352 8.0775C48.1352 7.63355 48.0597 7.15526 47.9086 6.64266C47.7576 6.12547 47.5425 5.72957 47.2633 5.45496C46.9887 5.18035 46.6752 5.04304 46.3228 5.04304C45.9154 5.04304 45.5584 5.22612 45.2518 5.59227C44.9451 5.95842 44.7918 6.50306 44.7918 7.22621C44.7918 8.19192 44.9955 8.9471 45.4028 9.49175C45.7003 9.88536 46.0665 10.0822 46.5013 10.0822C46.7118 10.0822 46.9612 10.0318 47.2496 9.93113C47.5379 9.83044 47.7919 9.68856 48.0116 9.50548ZM51.6914 5.70211L53.957 4.5968H54.1835V12.4576C54.1835 12.9793 54.2041 13.3043 54.2453 13.4324C54.2911 13.5606 54.3826 13.659 54.5199 13.7276C54.6572 13.7963 54.9364 13.8352 55.3575 13.8443V14.0984H51.8562V13.8443C52.2956 13.8352 52.5793 13.7986 52.7075 13.7345C52.8356 13.6658 52.9249 13.5766 52.9752 13.4668C53.0256 13.3523 53.0507 13.0159 53.0507 12.4576V7.43216C53.0507 6.75479 53.0279 6.31999 52.9821 6.12776C52.9501 5.9813 52.8906 5.87374 52.8036 5.80509C52.7212 5.73644 52.6205 5.70211 52.5015 5.70211C52.3322 5.70211 52.0965 5.77305 51.7944 5.91494L51.6914 5.70211ZM58.4881 4.78903H63.4791V5.04991L60.376 14.2906H59.6071L62.3875 5.90807H59.8268C59.3096 5.90807 58.9412 5.96986 58.7215 6.09343C58.337 6.30397 58.0281 6.62893 57.7947 7.0683L57.5956 6.99279L58.4881 4.78903Z" fill="black"/>
<path d="M37.1603 23.7144L37.1898 25.5811H36.9601C36.9444 25.2042 36.8639 24.9019 36.7187 24.6742C36.5734 24.4465 36.3948 24.3032 36.1828 24.2443C35.9747 24.1815 35.6725 24.1501 35.2759 24.1501H33.0382V30.2449C33.0382 30.771 33.105 31.1047 33.2384 31.246C33.3759 31.3874 33.6899 31.4659 34.1806 31.4816V31.6995H30.7534V31.4816C31.2481 31.4659 31.5641 31.3874 31.7015 31.246C31.8389 31.1047 31.9076 30.771 31.9076 30.2449V25.1689C31.9076 24.6428 31.8389 24.3091 31.7015 24.1678C31.5641 24.0265 31.2481 23.9479 30.7534 23.9322V23.7144H37.1603ZM41.7064 29.026H38.6149L38.0731 30.2862C37.9396 30.5963 37.8729 30.8279 37.8729 30.981C37.8729 31.1027 37.9298 31.2107 38.0436 31.3049C38.1614 31.3952 38.4127 31.4541 38.7974 31.4816V31.6995H36.2829V31.4816C36.6166 31.4227 36.8325 31.3461 36.9307 31.2519C37.1309 31.0635 37.3527 30.6807 37.5961 30.1036L40.405 23.5318H40.6111L43.3906 30.1743C43.6144 30.7082 43.8166 31.0556 43.9971 31.2166C44.1817 31.3736 44.4368 31.462 44.7627 31.4816V31.6995H41.6122V31.4816C41.9302 31.4659 42.1442 31.4129 42.2541 31.3226C42.3679 31.2323 42.4249 31.1224 42.4249 30.9928C42.4249 30.8201 42.3463 30.5472 42.1893 30.1743L41.7064 29.026ZM41.5415 28.5902L40.1871 25.3632L38.7974 28.5902H41.5415ZM51.1107 24.1501H47.4067V30.2449C47.4067 30.771 47.4735 31.1047 47.6069 31.246C47.7443 31.3874 48.0623 31.4659 48.5609 31.4816V31.6995H45.1219V31.4816C45.6165 31.4659 45.9326 31.3874 46.07 31.246C46.2074 31.1047 46.2761 30.771 46.2761 30.2449V25.1689C46.2761 24.6428 46.2074 24.3091 46.07 24.1678C45.9326 24.0265 45.6165 23.9479 45.1219 23.9322V23.7144H53.3956V23.9322C52.9009 23.9479 52.5849 24.0265 52.4475 24.1678C52.3101 24.3091 52.2414 24.6428 52.2414 25.1689V30.2449C52.2414 30.771 52.3101 31.1047 52.4475 31.246C52.5849 31.3874 52.9009 31.4659 53.3956 31.4816V31.6995H49.9624V31.4816C50.4532 31.4659 50.7672 31.3893 50.9046 31.2519C51.042 31.1106 51.1107 30.7749 51.1107 30.2449V24.1501ZM58.03 23.5318C59.0664 23.5318 59.9634 23.9263 60.7211 24.7154C61.4827 25.5006 61.8635 26.4821 61.8635 27.6598C61.8635 28.8729 61.4808 29.8798 60.7152 30.6807C59.9497 31.4816 59.0232 31.882 57.9358 31.882C56.8365 31.882 55.912 31.4914 55.1622 30.7102C54.4163 29.9289 54.0433 28.918 54.0433 27.6775C54.0433 26.4094 54.4752 25.375 55.3388 24.5741C56.0887 23.8792 56.9857 23.5318 58.03 23.5318ZM57.9181 23.9617C57.2036 23.9617 56.6304 24.2267 56.1986 24.7567C55.6607 25.4162 55.3918 26.3819 55.3918 27.6539C55.3918 28.9573 55.6706 29.9603 56.228 30.663C56.6559 31.197 57.2213 31.4639 57.924 31.4639C58.6738 31.4639 59.2921 31.1714 59.7789 30.5865C60.2697 30.0015 60.515 29.079 60.515 27.8188C60.515 26.4526 60.2461 25.4339 59.7083 24.7625C59.2764 24.2286 58.6797 23.9617 57.9181 23.9617ZM61.8047 23.7144H65.0434V23.9322C64.4742 23.9558 64.1896 24.1089 64.1896 24.3916C64.1896 24.5918 64.3996 25.0589 64.8197 25.7931L66.5627 28.8552L67.8347 25.7931C68.1017 25.1492 68.2351 24.7174 68.2351 24.4976C68.2351 24.1913 67.9878 24.0029 67.4932 23.9322V23.7144H69.9959V23.9322C69.407 24.0029 68.9595 24.4033 68.6532 25.1335L67.1281 28.761C66.7316 29.6914 66.4096 30.3529 66.1623 30.7455C65.915 31.1381 65.6441 31.4266 65.3497 31.6111C65.0592 31.7917 64.7569 31.882 64.4428 31.882C64.1719 31.882 63.9423 31.8231 63.7538 31.7054C63.5693 31.5915 63.477 31.4345 63.477 31.2343C63.477 31.089 63.5261 30.9693 63.6243 30.875C63.7224 30.7769 63.8559 30.7278 64.0247 30.7278C64.1896 30.7278 64.3859 30.7946 64.6136 30.928C64.7667 31.0105 64.8825 31.0517 64.961 31.0517C65.2711 31.0517 65.6186 30.7298 66.0033 30.086L63.1061 24.9922C62.9019 24.635 62.7076 24.3817 62.5231 24.2326C62.3425 24.0834 62.103 23.9833 61.8047 23.9322V23.7144Z" fill="black"/>
<path d="M37.2623 42.8142C39.8961 40.2076 42.5355 37.6065 45.1694 35L49.3552 39.1858L46.6994 41.8415L51.2131 46.3552L56.3879 41.1803L53.5464 38.3388L57.2131 34.6721L64.8032 42.2623L60.8579 46.2076L58.4808 43.8306L53.7759 48.5355L60.9399 55.6994L58.6612 57.9781L51.2623 50.5792L44.0929 57.7486L42.0874 55.7432L48.9781 48.8524L44.1912 44.0656L41.2022 47.0546C39.8907 45.6448 38.5737 44.2295 37.2623 42.8197V42.8142Z" fill="black"/>
<path d="M34.9519 60.4172V58.1759H35.151C35.2117 58.4262 35.352 58.5514 35.5719 58.5514C35.6554 58.5514 35.8336 58.5002 36.1067 58.3978C36.5352 58.2423 36.9846 58.1646 37.4549 58.1646C38.092 58.1646 38.604 58.3561 38.9908 58.7391C39.3776 59.1221 39.571 59.5696 39.571 60.0816C39.571 60.5481 39.425 60.9482 39.133 61.2819C38.841 61.6119 38.4542 61.8546 37.9725 62.0101C38.4959 62.1049 38.9187 62.3438 39.2411 62.7268C39.5634 63.1061 39.7246 63.5536 39.7246 64.0693C39.7246 64.7065 39.4781 65.226 38.9851 65.628C38.4921 66.03 37.8796 66.231 37.1477 66.231C36.0593 66.231 35.2155 65.7152 34.6163 64.6837L34.8097 64.5586C35.0031 64.8733 35.2837 65.1445 35.6516 65.372C36.0194 65.5996 36.4158 65.7133 36.8405 65.7133C37.3449 65.7133 37.7355 65.5465 38.0124 65.2127C38.293 64.8752 38.4333 64.4637 38.4333 63.9783C38.4333 63.4777 38.257 63.0549 37.9043 62.7098C37.5516 62.3646 36.9675 62.1921 36.1522 62.1921V61.8166C36.7286 61.8166 37.1629 61.756 37.4549 61.6346C37.7469 61.5133 37.9839 61.316 38.1659 61.043C38.348 60.7699 38.439 60.4533 38.439 60.093C38.439 59.6758 38.312 59.3345 38.0579 59.069C37.8038 58.8036 37.4587 58.6708 37.0225 58.6708C36.4802 58.6708 36.0555 58.832 35.7483 59.1544C35.4449 59.4729 35.2458 59.8939 35.151 60.4172H34.9519ZM43.5246 65.3038C42.9899 65.7171 42.6543 65.9561 42.5177 66.0205C42.3129 66.1153 42.0949 66.1627 41.8635 66.1627C41.5033 66.1627 41.2056 66.0395 40.9704 65.793C40.7391 65.5465 40.6234 65.2222 40.6234 64.8202C40.6234 64.5661 40.6803 64.3462 40.7941 64.1604C40.9496 63.9025 41.2188 63.6598 41.6019 63.4322C41.9887 63.2047 42.6296 62.9278 43.5246 62.6017V62.3969C43.5246 61.8773 43.4412 61.5208 43.2743 61.3274C43.1112 61.134 42.8723 61.0373 42.5576 61.0373C42.3186 61.0373 42.129 61.1018 41.9887 61.2307C41.8446 61.3597 41.7725 61.5076 41.7725 61.6744L41.7839 62.0044C41.7839 62.1788 41.7384 62.3134 41.6474 62.4083C41.5601 62.5031 41.4445 62.5505 41.3004 62.5505C41.1601 62.5505 41.0444 62.5012 40.9534 62.4026C40.8661 62.304 40.8225 62.1693 40.8225 61.9987C40.8225 61.6725 40.9894 61.3729 41.3231 61.0999C41.6569 60.8268 42.1252 60.6903 42.7282 60.6903C43.1909 60.6903 43.5701 60.768 43.8659 60.9235C44.0897 61.0411 44.2547 61.225 44.3608 61.4753C44.4291 61.6384 44.4632 61.9721 44.4632 62.4765V64.2457C44.4632 64.7425 44.4727 65.0478 44.4917 65.1615C44.5106 65.2715 44.541 65.3455 44.5827 65.3834C44.6282 65.4213 44.6794 65.4403 44.7363 65.4403C44.797 65.4403 44.8501 65.427 44.8956 65.4005C44.9752 65.3512 45.1288 65.2127 45.3563 64.9852V65.3038C44.9316 65.8726 44.5258 66.1571 44.139 66.1571C43.9532 66.1571 43.8053 66.0926 43.6953 65.9636C43.5853 65.8347 43.5284 65.6147 43.5246 65.3038ZM43.5246 64.934V62.9487C42.952 63.1762 42.5822 63.3374 42.4153 63.4322C42.1157 63.5991 41.9015 63.7735 41.7725 63.9556C41.6436 64.1376 41.5791 64.3367 41.5791 64.5529C41.5791 64.8259 41.6606 65.0535 41.8237 65.2355C41.9868 65.4137 42.1745 65.5029 42.3869 65.5029C42.6751 65.5029 43.0544 65.3132 43.5246 64.934ZM46.2381 62.3343C46.6742 61.2383 47.4099 60.6903 48.4453 60.6903C49.1696 60.6903 49.7612 60.9615 50.2201 61.5038C50.6828 62.0461 50.9141 62.6661 50.9141 63.3639C50.9141 64.0845 50.6809 64.7406 50.2144 65.3322C49.748 65.92 49.1165 66.2139 48.3201 66.2139C47.5085 66.2139 46.8904 65.8783 46.4656 65.2071C46.0409 64.532 45.8285 63.7109 45.8285 62.7439C45.8285 61.993 45.9385 61.2933 46.1584 60.6448C46.3784 59.9925 46.6097 59.5052 46.8525 59.1828C47.0952 58.8605 47.3758 58.6253 47.6944 58.4774C48.0129 58.3295 48.5761 58.2518 49.3839 58.2442C49.9641 58.2366 50.3149 58.2195 50.4363 58.193C50.5576 58.1665 50.6733 58.0906 50.7833 57.9655H51.0051C50.88 58.3371 50.7283 58.6026 50.55 58.7619C50.3718 58.9211 50.1803 59.0292 49.9755 59.0861C49.7707 59.1392 49.4047 59.1733 48.8776 59.1885C48.3087 59.2037 47.9143 59.2473 47.6944 59.3193C47.4782 59.3876 47.2526 59.5583 47.0174 59.8313C46.7823 60.1006 46.5984 60.4552 46.4656 60.8951C46.3367 61.335 46.2608 61.8147 46.2381 62.3343ZM48.2519 61.0771C47.8726 61.0771 47.5616 61.2345 47.3189 61.5493C47.0762 61.864 46.9548 62.359 46.9548 63.034C46.9548 63.948 47.1179 64.6401 47.4441 65.1103C47.7702 65.5806 48.1476 65.8157 48.5761 65.8157C48.9705 65.8157 49.2796 65.6527 49.5033 65.3265C49.7309 64.9966 49.8447 64.4713 49.8447 63.7508C49.8447 62.9847 49.6968 62.3476 49.4009 61.8394C49.1051 61.3312 48.7221 61.0771 48.2519 61.0771ZM57.712 58.3409L57.7405 60.1442H57.5186C57.5034 59.7801 57.4257 59.4881 57.2854 59.2681C57.145 59.0482 56.9725 58.9098 56.7677 58.8529C56.5667 58.7922 56.2747 58.7619 55.8917 58.7619H53.73V64.6496C53.73 65.1578 53.7945 65.4801 53.9234 65.6166C54.0561 65.7532 54.3595 65.829 54.8336 65.8442V66.0547H51.5228V65.8442C52.0006 65.829 52.3059 65.7532 52.4387 65.6166C52.5714 65.4801 52.6378 65.1578 52.6378 64.6496V59.746C52.6378 59.2378 52.5714 58.9155 52.4387 58.7789C52.3059 58.6424 52.0006 58.5666 51.5228 58.5514V58.3409H57.712ZM65.7785 65.8442V66.0547H63.7874C63.5713 65.7095 63.1162 65.0592 62.4222 64.1035C61.7282 63.144 61.3053 62.613 61.1536 62.5107C61.0019 62.4045 60.7725 62.3495 60.4653 62.3457V64.6496C60.4653 65.1578 60.5298 65.4801 60.6587 65.6166C60.7914 65.7532 61.0986 65.829 61.5803 65.8442V66.0547H58.2581V65.8442C58.7322 65.829 59.0356 65.7551 59.1683 65.6223C59.3048 65.4858 59.3731 65.1615 59.3731 64.6496V59.746C59.3731 59.2378 59.3067 58.9155 59.174 58.7789C59.0412 58.6424 58.736 58.5666 58.2581 58.5514V58.3409H61.5803V58.5514C61.0986 58.5666 60.7914 58.6424 60.6587 58.7789C60.5298 58.9155 60.4653 59.2378 60.4653 59.746V61.8963C60.8787 61.8925 61.165 61.8659 61.3243 61.8166C61.4836 61.7635 61.6618 61.646 61.859 61.4639C62.06 61.2819 62.2174 61.0866 62.3312 60.878C62.4487 60.6656 62.5985 60.3186 62.7806 59.837C62.9512 59.3857 63.0896 59.0728 63.1958 58.8984C63.3058 58.7201 63.4803 58.5684 63.7192 58.4433C63.9581 58.3144 64.2425 58.2499 64.5725 58.2499C65.1565 58.2499 65.4485 58.4547 65.4485 58.8643C65.4485 59.0084 65.3897 59.1335 65.2722 59.2397C65.1584 59.3459 65.0276 59.399 64.8797 59.399C64.7735 59.399 64.5952 59.3383 64.3449 59.2169C64.125 59.107 63.9714 59.052 63.8841 59.052C63.7628 59.052 63.6585 59.1164 63.5713 59.2454C63.4841 59.3705 63.3456 59.6929 63.156 60.2125C62.7919 61.1833 62.3274 61.7996 61.7623 62.0613C62.1074 62.1219 62.5853 62.5941 63.1958 63.4777C63.8443 64.4144 64.3203 65.0402 64.6237 65.355C64.9271 65.6697 65.312 65.8328 65.7785 65.8442Z" fill="black"/>
<path d="M19.6117 73.4663L21.0519 71.8006C21.047 71.6139 21.0119 71.4842 20.9464 71.4115C20.881 71.3387 20.7682 71.3012 20.6082 71.2987V71.1605H22.1575V71.2987C21.995 71.2987 21.8859 71.3157 21.8302 71.3497C21.7744 71.3812 21.7308 71.4212 21.6992 71.4697C21.6677 71.5182 21.652 71.6758 21.652 71.9425V73.7099C21.652 73.9669 21.6653 74.1209 21.692 74.1718C21.7186 74.2203 21.7598 74.2639 21.8156 74.3027C21.8738 74.3391 21.9878 74.3573 22.1575 74.3573V74.4918H20.5464V74.3573C20.7476 74.3573 20.8822 74.3209 20.9501 74.2482C21.0179 74.173 21.0519 73.9936 21.0519 73.7099V72.1425L19.6117 73.8117C19.6166 74.0178 19.6457 74.1597 19.699 74.2372C19.7524 74.3148 19.8675 74.3548 20.0445 74.3573V74.4918H18.5062V74.3573C18.7219 74.3573 18.8601 74.3185 18.9207 74.2409C18.9814 74.1609 19.0117 73.9839 19.0117 73.7099V71.9425C19.0117 71.683 18.9983 71.5303 18.9717 71.4842C18.945 71.4357 18.9038 71.3933 18.848 71.3569C18.7923 71.3181 18.6783 71.2987 18.5062 71.2987V71.1605H20.1172V71.2987C19.9548 71.2987 19.8457 71.3157 19.7899 71.3497C19.7342 71.3812 19.6905 71.4212 19.659 71.4697C19.6275 71.5182 19.6117 71.6758 19.6117 71.9425V73.4663ZM24.7105 73.6226L25.7506 71.1605H26.8743V71.2987C26.7095 71.2987 26.5992 71.3157 26.5434 71.3497C26.4901 71.3812 26.4476 71.4212 26.4161 71.4697C26.3846 71.5182 26.3688 71.6758 26.3688 71.9425V73.7099C26.3688 73.9402 26.3797 74.0894 26.4016 74.1572C26.4258 74.2227 26.4731 74.2724 26.5434 74.3063C26.6161 74.3403 26.7265 74.3573 26.8743 74.3573V74.4918H25.2633V74.3573C25.4621 74.3573 25.5954 74.3209 25.6633 74.2482C25.7312 74.173 25.7651 73.9936 25.7651 73.7099V71.7061L24.5868 74.4918H24.4595L23.2594 71.7061V73.7099C23.2594 73.9402 23.2715 74.0894 23.2958 74.1572C23.32 74.2227 23.3673 74.2724 23.4376 74.3063C23.5079 74.3403 23.617 74.3573 23.7649 74.3573V74.4918H22.492V74.3573C22.7078 74.3573 22.846 74.3185 22.9066 74.2409C22.9673 74.1609 22.9976 73.9839 22.9976 73.7099V71.9425C22.9976 71.683 22.9842 71.5303 22.9576 71.4842C22.9309 71.4357 22.8897 71.3933 22.8339 71.3569C22.7781 71.3181 22.6642 71.2987 22.492 71.2987V71.1605H23.6631L24.7105 73.6226ZM27.969 73.7863C28.083 73.7863 28.1787 73.8263 28.2563 73.9063C28.3339 73.9839 28.3727 74.0784 28.3727 74.19C28.3727 74.3015 28.3327 74.3973 28.2527 74.4773C28.1751 74.5549 28.0805 74.5937 27.969 74.5937C27.8575 74.5937 27.7617 74.5549 27.6817 74.4773C27.6041 74.3973 27.5653 74.3015 27.5653 74.19C27.5653 74.076 27.6041 73.9803 27.6817 73.9027C27.7617 73.8251 27.8575 73.7863 27.969 73.7863ZM33.8096 74.4918L31.904 70.3423V73.6372C31.904 73.9402 31.9367 74.1294 32.0022 74.2045C32.0919 74.3063 32.2337 74.3573 32.4277 74.3573H32.6022V74.4918H30.8857V74.3573H31.0603C31.2688 74.3573 31.4167 74.2942 31.5039 74.1681C31.5573 74.0906 31.584 73.9136 31.584 73.6372V70.415C31.584 70.1968 31.5597 70.0392 31.5112 69.9422C31.4773 69.8719 31.4142 69.8137 31.3221 69.7677C31.2324 69.7192 31.0869 69.6949 30.8857 69.6949V69.5604H32.2822L34.0715 73.419L35.8317 69.5604H37.2282V69.6949H37.0573C36.8463 69.6949 36.6972 69.758 36.61 69.884C36.5566 69.9616 36.5299 70.1386 36.5299 70.415V73.6372C36.5299 73.9402 36.5639 74.1294 36.6318 74.2045C36.7215 74.3063 36.8633 74.3573 37.0573 74.3573H37.2282V74.4918H35.1334V74.3573H35.308C35.5189 74.3573 35.6668 74.2942 35.7517 74.1681C35.805 74.0906 35.8317 73.9136 35.8317 73.6372V70.3423L33.9297 74.4918H33.8096ZM38.3192 73.7863C38.4332 73.7863 38.529 73.8263 38.6065 73.9063C38.6841 73.9839 38.7229 74.0784 38.7229 74.19C38.7229 74.3015 38.6829 74.3973 38.6029 74.4773C38.5253 74.5549 38.4308 74.5937 38.3192 74.5937C38.2077 74.5937 38.1119 74.5549 38.0319 74.4773C37.9543 74.3973 37.9156 74.3015 37.9156 74.19C37.9156 74.076 37.9543 73.9803 38.0319 73.9027C38.1119 73.8251 38.2077 73.7863 38.3192 73.7863ZM44.9454 70.375C44.9454 70.0792 44.8969 69.8925 44.7999 69.8149C44.7054 69.7349 44.5126 69.6949 44.2217 69.6949V69.5604H46.3565V69.6949C46.051 69.7046 45.8558 69.7531 45.771 69.8404C45.6861 69.9277 45.6437 70.1338 45.6437 70.4587V73.5935C45.6437 73.9184 45.6861 74.1245 45.771 74.2118C45.8558 74.2991 46.051 74.3476 46.3565 74.3573V74.4918H44.2217V74.3573C44.5345 74.3476 44.7333 74.2991 44.8181 74.2118C44.903 74.1221 44.9454 73.916 44.9454 73.5935V70.7641L42.6579 73.6954C42.6603 73.9063 42.6736 74.0481 42.6979 74.1209C42.7246 74.1912 42.784 74.2469 42.8761 74.2882C42.9707 74.3294 43.1367 74.3524 43.3743 74.3573V74.4918H41.2468V74.3573C41.5523 74.3476 41.7475 74.2991 41.8323 74.2118C41.9172 74.1245 41.9596 73.9184 41.9596 73.5935V70.4587C41.9596 70.1338 41.9172 69.9277 41.8323 69.8404C41.7475 69.7531 41.5523 69.7046 41.2468 69.6949V69.5604H43.3743V69.6949C43.0664 69.7046 42.87 69.7531 42.7852 69.8404C42.7003 69.9277 42.6579 70.1338 42.6579 70.4587V73.299L44.9454 70.375ZM47.4257 73.7863C47.5396 73.7863 47.6354 73.8263 47.713 73.9063C47.7906 73.9839 47.8294 74.0784 47.8294 74.19C47.8294 74.3015 47.7894 74.3973 47.7094 74.4773C47.6318 74.5549 47.5372 74.5937 47.4257 74.5937C47.3142 74.5937 47.2184 74.5549 47.1384 74.4773C47.0608 74.3973 47.022 74.3015 47.022 74.19C47.022 74.076 47.0608 73.9803 47.1384 73.9027C47.2184 73.8251 47.3142 73.7863 47.4257 73.7863ZM53.6264 72.8407H51.7171L51.3825 73.619C51.3 73.8105 51.2588 73.9536 51.2588 74.0481C51.2588 74.1233 51.294 74.19 51.3643 74.2482C51.437 74.3039 51.5922 74.3403 51.8298 74.3573V74.4918H50.2769V74.3573C50.483 74.3209 50.6163 74.2736 50.6769 74.2154C50.8006 74.0991 50.9376 73.8627 51.0879 73.5063L52.8226 69.4476H52.9499L54.6665 73.5499C54.8047 73.8796 54.9295 74.0942 55.0411 74.1936C55.155 74.2906 55.3126 74.3451 55.5138 74.3573V74.4918H53.5682V74.3573C53.7646 74.3476 53.8967 74.3148 53.9646 74.2591C54.0349 74.2033 54.07 74.1354 54.07 74.0554C54.07 73.9487 54.0216 73.7802 53.9246 73.5499L53.6264 72.8407ZM53.5245 72.5716L52.6881 70.5787L51.8298 72.5716H53.5245ZM58.4742 71.1605L58.6087 72.0697H58.4487C58.3566 71.7691 58.2632 71.5824 58.1687 71.5097C58.0765 71.4345 57.8802 71.3969 57.5795 71.3969H56.874V73.7099C56.874 73.9669 56.8873 74.1209 56.914 74.1718C56.9407 74.2203 56.9819 74.2639 57.0376 74.3027C57.0958 74.3391 57.2098 74.3573 57.3795 74.3573V74.4918H55.7139V74.3573C55.9515 74.3524 56.1042 74.316 56.1721 74.2482C56.24 74.1778 56.2739 73.9984 56.2739 73.7099V71.9425C56.2739 71.7073 56.2606 71.557 56.2339 71.4915C56.2073 71.4236 56.16 71.3751 56.0921 71.346C56.0266 71.3169 55.9006 71.3012 55.7139 71.2987V71.1605H58.4742ZM60.3289 71.0624C60.8332 71.0624 61.2381 71.2539 61.5436 71.637C61.803 71.9643 61.9327 72.3401 61.9327 72.7644C61.9327 73.0626 61.8612 73.3644 61.7182 73.6699C61.5751 73.9754 61.3775 74.2057 61.1254 74.3609C60.8756 74.5161 60.5968 74.5937 60.2889 74.5937C59.787 74.5937 59.3882 74.3936 59.0924 73.9936C58.8427 73.6566 58.7178 73.2784 58.7178 72.8589C58.7178 72.5534 58.793 72.2504 58.9433 71.9497C59.0961 71.6467 59.2961 71.4236 59.5434 71.2806C59.7907 71.1351 60.0525 71.0624 60.3289 71.0624ZM60.2162 71.2987C60.0877 71.2987 59.958 71.3375 59.827 71.4151C59.6985 71.4903 59.5943 71.6236 59.5143 71.8152C59.4343 72.0067 59.3943 72.2528 59.3943 72.5534C59.3943 73.0383 59.49 73.4566 59.6816 73.8081C59.8755 74.1597 60.1301 74.3354 60.4453 74.3354C60.6805 74.3354 60.8744 74.2385 61.0272 74.0445C61.1799 73.8505 61.2563 73.5172 61.2563 73.0444C61.2563 72.4528 61.129 71.9873 60.8744 71.6479C60.7023 71.4151 60.4829 71.2987 60.2162 71.2987ZM67.7588 74.3573V74.4918H62.3582V74.3573C62.5595 74.3573 62.694 74.3209 62.7619 74.2482C62.8298 74.173 62.8637 73.9936 62.8637 73.7099V71.9425C62.8637 71.683 62.8504 71.5303 62.8237 71.4842C62.7971 71.4357 62.7558 71.3933 62.7001 71.3569C62.6443 71.3181 62.5304 71.2987 62.3582 71.2987V71.1605H63.9693V71.2987C63.8069 71.2987 63.6978 71.3157 63.642 71.3497C63.5862 71.3812 63.5426 71.4212 63.5111 71.4697C63.4796 71.5182 63.4638 71.6758 63.4638 71.9425V73.779C63.4638 74.0093 63.4844 74.1463 63.5256 74.19C63.5668 74.2336 63.705 74.2554 63.9402 74.2554H64.333C64.4882 74.2554 64.59 74.2469 64.6385 74.23C64.687 74.2106 64.7185 74.1791 64.733 74.1354C64.75 74.0918 64.7585 73.9487 64.7585 73.7063V71.9425C64.7585 71.6855 64.7452 71.5327 64.7185 71.4842C64.6918 71.4333 64.6494 71.3897 64.5912 71.3533C64.5354 71.3169 64.4227 71.2987 64.253 71.2987V71.1605H65.8022V71.2987C65.6713 71.3012 65.5743 71.323 65.5113 71.3642C65.4483 71.4054 65.407 71.4576 65.3876 71.5206C65.3683 71.5836 65.3586 71.7242 65.3586 71.9425V73.8227C65.3586 74.0312 65.3792 74.156 65.4204 74.1972C65.4616 74.236 65.5889 74.2554 65.8022 74.2554H66.2386C66.4714 74.2554 66.5987 74.2312 66.6205 74.1827C66.6423 74.1318 66.6532 73.9803 66.6532 73.7281V71.9425C66.6532 71.683 66.6399 71.5303 66.6132 71.4842C66.5866 71.4357 66.5453 71.3933 66.4896 71.3569C66.4338 71.3181 66.3199 71.2987 66.1477 71.2987V71.1605H67.7588V71.2987C67.5939 71.2987 67.4836 71.3157 67.4279 71.3497C67.3745 71.3812 67.3321 71.4212 67.3006 71.4697C67.2691 71.5182 67.2533 71.6758 67.2533 71.9425V73.5135C67.2533 73.8384 67.2618 74.0397 67.2788 74.1172C67.2982 74.1948 67.3406 74.253 67.406 74.2918C67.4715 74.3306 67.5891 74.3524 67.7588 74.3573ZM71.5047 74.4918H70.5228C70.2173 74.0481 69.9409 73.5935 69.6936 73.128C69.6354 73.0214 69.582 72.9426 69.5336 72.8916C69.4875 72.8383 69.4232 72.8116 69.3408 72.8116C69.3117 72.8116 69.2656 72.8141 69.2026 72.8189V73.7099C69.2026 73.9499 69.2159 74.1039 69.2426 74.1718C69.2717 74.2372 69.3226 74.2845 69.3954 74.3136C69.4681 74.3427 69.5905 74.3573 69.7627 74.3573V74.4918H68.097V74.3573C68.3128 74.3573 68.451 74.3185 68.5116 74.2409C68.5722 74.1609 68.6025 73.9839 68.6025 73.7099V71.9425C68.6025 71.683 68.5892 71.5303 68.5625 71.4842C68.5359 71.4357 68.4947 71.3933 68.4389 71.3569C68.3831 71.3181 68.2692 71.2987 68.097 71.2987V71.1605H69.7627V71.2987C69.5614 71.2987 69.4366 71.3133 69.3881 71.3424C69.342 71.3715 69.2996 71.4078 69.2608 71.4515C69.222 71.4927 69.2026 71.6564 69.2026 71.9425V72.5971C69.2584 72.6019 69.296 72.6043 69.3154 72.6043C69.4632 72.6043 69.6014 72.5631 69.7299 72.4807C69.8609 72.3958 69.9772 72.2176 70.0791 71.9461C70.1736 71.6891 70.2512 71.5157 70.3118 71.426C70.3749 71.3363 70.4609 71.2636 70.57 71.2078C70.6816 71.1496 70.7979 71.1205 70.9192 71.1205C71.0501 71.1205 71.1543 71.1521 71.2319 71.2151C71.3095 71.2781 71.3483 71.3606 71.3483 71.4624C71.3483 71.5473 71.3204 71.62 71.2647 71.6806C71.2089 71.7388 71.1313 71.7679 71.0319 71.7679C70.9786 71.7679 70.9119 71.7533 70.8319 71.7242C70.7301 71.6879 70.6525 71.6697 70.5991 71.6697C70.4876 71.6697 70.3955 71.7655 70.3227 71.957C70.2403 72.1776 70.1797 72.3207 70.1409 72.3861C70.1021 72.4492 70.0282 72.534 69.9191 72.6407C69.9942 72.6625 70.0754 72.7183 70.1627 72.808C70.2524 72.8977 70.4173 73.1535 70.6573 73.5754C70.8489 73.9124 70.9919 74.1257 71.0865 74.2154C71.1834 74.3051 71.3228 74.3524 71.5047 74.3573V74.4918ZM73.0358 71.0624C73.5401 71.0624 73.9449 71.2539 74.2504 71.637C74.5099 71.9643 74.6396 72.3401 74.6396 72.7644C74.6396 73.0626 74.568 73.3644 74.425 73.6699C74.282 73.9754 74.0844 74.2057 73.8322 74.3609C73.5825 74.5161 73.3037 74.5937 72.9958 74.5937C72.4939 74.5937 72.095 74.3936 71.7993 73.9936C71.5495 73.6566 71.4247 73.2784 71.4247 72.8589C71.4247 72.5534 71.4998 72.2504 71.6502 71.9497C71.8029 71.6467 72.0029 71.4236 72.2502 71.2806C72.4975 71.1351 72.7594 71.0624 73.0358 71.0624ZM72.923 71.2987C72.7945 71.2987 72.6648 71.3375 72.5339 71.4151C72.4054 71.4903 72.3011 71.6236 72.2211 71.8152C72.1411 72.0067 72.1011 72.2528 72.1011 72.5534C72.1011 73.0383 72.1969 73.4566 72.3884 73.8081C72.5824 74.1597 72.8369 74.3354 73.1521 74.3354C73.3873 74.3354 73.5813 74.2385 73.734 74.0445C73.8868 73.8505 73.9631 73.5172 73.9631 73.0444C73.9631 72.4528 73.8358 71.9873 73.5813 71.6479C73.4091 71.4151 73.1897 71.2987 72.923 71.2987ZM77.2435 72.7316C77.852 72.8577 78.1563 73.1426 78.1563 73.5863C78.1563 73.8893 78.029 74.116 77.7745 74.2663C77.5223 74.4167 77.1695 74.4918 76.7162 74.4918H75.0723V74.3573C75.2881 74.3573 75.4239 74.3173 75.4797 74.2372C75.5379 74.1548 75.5669 73.979 75.5669 73.7099V71.9425C75.5669 71.6806 75.5536 71.5266 75.5269 71.4806C75.5027 71.4345 75.4627 71.3933 75.4069 71.3569C75.3536 71.3181 75.2421 71.2987 75.0723 71.2987V71.1605H76.6071C76.9028 71.1605 77.1417 71.1836 77.3235 71.2296C77.5078 71.2757 77.6581 71.3666 77.7745 71.5024C77.8933 71.6382 77.9527 71.803 77.9527 71.997C77.9527 72.3752 77.7163 72.6201 77.2435 72.7316ZM76.1706 72.648C76.2773 72.6504 76.3416 72.6516 76.3634 72.6516C76.6956 72.6516 76.9356 72.5886 77.0835 72.4625C77.2314 72.334 77.3053 72.1788 77.3053 71.997C77.3053 71.7861 77.2302 71.6333 77.0798 71.5388C76.9295 71.4442 76.6895 71.3969 76.3598 71.3969H76.1706V72.648ZM76.1706 74.1972C76.2919 74.236 76.4361 74.2554 76.6034 74.2554C76.8919 74.2554 77.1065 74.1924 77.2471 74.0663C77.3878 73.9402 77.4581 73.7778 77.4581 73.579C77.4581 73.3559 77.3671 73.185 77.1853 73.0662C77.0035 72.9474 76.7513 72.888 76.4289 72.888C76.3488 72.888 76.2628 72.8904 76.1706 72.8953V74.1972ZM80.4366 74.0118C80.0947 74.276 79.8801 74.4288 79.7929 74.47C79.6619 74.5306 79.5225 74.5609 79.3746 74.5609C79.1443 74.5609 78.954 74.4821 78.8037 74.3245C78.6558 74.1669 78.5818 73.9596 78.5818 73.7026C78.5818 73.5402 78.6182 73.3996 78.6909 73.2808C78.7903 73.1159 78.9625 72.9607 79.2073 72.8153C79.4546 72.6698 79.8644 72.4928 80.4366 72.2843V72.1534C80.4366 71.8212 80.3832 71.5933 80.2765 71.4697C80.1723 71.346 80.0196 71.2842 79.8183 71.2842C79.6656 71.2842 79.5443 71.3254 79.4546 71.4078C79.3625 71.4903 79.3164 71.5848 79.3164 71.6915L79.3237 71.9024C79.3237 72.014 79.2946 72.1 79.2364 72.1607C79.1807 72.2213 79.1067 72.2516 79.0146 72.2516C78.9249 72.2516 78.8509 72.2201 78.7927 72.157C78.737 72.094 78.7091 72.0079 78.7091 71.8988C78.7091 71.6903 78.8158 71.4988 79.0291 71.3242C79.2425 71.1496 79.5419 71.0624 79.9274 71.0624C80.2232 71.0624 80.4657 71.1121 80.6548 71.2115C80.7978 71.2866 80.9033 71.4042 80.9712 71.5642C81.0148 71.6685 81.0366 71.8818 81.0366 72.2043V73.3353C81.0366 73.6529 81.0427 73.8481 81.0548 73.9208C81.0669 73.9912 81.0863 74.0384 81.113 74.0627C81.1421 74.0869 81.1748 74.0991 81.2112 74.0991C81.25 74.0991 81.2839 74.0906 81.313 74.0736C81.3639 74.0421 81.4621 73.9536 81.6076 73.8081V74.0118C81.3361 74.3754 81.0766 74.5573 80.8293 74.5573C80.7105 74.5573 80.616 74.5161 80.5457 74.4336C80.4754 74.3512 80.439 74.2106 80.4366 74.0118ZM80.4366 73.7754V72.5061C80.0705 72.6516 79.8341 72.7547 79.7274 72.8153C79.5359 72.922 79.3989 73.0335 79.3164 73.1499C79.234 73.2662 79.1928 73.3935 79.1928 73.5317C79.1928 73.7063 79.2449 73.8518 79.3492 73.9681C79.4534 74.0821 79.5734 74.1391 79.7092 74.1391C79.8935 74.1391 80.1359 74.0178 80.4366 73.7754Z" fill="black"/>
</svg>
